<?xml version="1.0" standalone="no"?>
<!DOCTYPE svg PUBLIC "-//W3C//DTD SVG 20010904//EN"
 "http://www.w3.org/TR/2001/REC-SVG-20010904/DTD/svg10.dtd">
<svg version="1.0" xmlns="http://www.w3.org/2000/svg"
 width="1000.000000pt" height="1000.000000pt" viewBox="0 0 1000.000000 1000.000000"
 preserveAspectRatio="xMidYMid meet">

<g transform="translate(0.000000,1000.000000) scale(0.100000,-0.100000)"
fill="#000000" stroke="none">
<path d="M4655 9424 c-339 -27 -751 -111 -1064 -219 -594 -204 -1106 -504
-1555 -911 -805 -729 -1304 -1687 -1443 -2769 -26 -203 -26 -847 0 -1050 65
-505 208 -984 428 -1430 249 -504 588 -953 1015 -1339 672 -610 1516 -994
2439 -1113 203 -26 847 -26 1050 0 873 112 1661 456 2330 1015 136 114 448
431 568 575 536 650 874 1438 984 2292 26 203 26 847 0 1050 -22 171 -76 446
-122 620 -156 593 -468 1197 -864 1673 -732 879 -1724 1429 -2855 1583 -124
17 -215 21 -506 24 -195 1 -377 1 -405 -1z m885 -108 c789 -111 1471 -391
2081 -852 546 -412 1001 -969 1297 -1584 202 -421 334 -867 399 -1350 15 -111
18 -204 18 -530 0 -424 -7 -510 -61 -795 -210 -1091 -801 -2035 -1689 -2696
-600 -446 -1286 -722 -2055 -826 -197 -26 -863 -26 -1060 0 -773 104 -1461
382 -2065 834 -563 421 -1021 976 -1323 1603 -202 421 -334 867 -399 1350 -15
111 -18 204 -18 530 0 326 3 419 18 530 97 714 348 1372 740 1935 665 955
1641 1589 2782 1809 110 21 227 37 425 60 19 2 206 3 415 1 285 -2 409 -7 495
-19z"/>
<path d="M4740 9134 c-240 -22 -488 -59 -700 -105 -147 -33 -553 -170 -685
-233 -65 -31 -123 -56 -129 -56 -6 0 -60 -28 -121 -61 -60 -33 -139 -77 -175
-96 -99 -54 -281 -176 -420 -282 -404 -305 -730 -659 -1012 -1098 -72 -112
-214 -371 -243 -443 -13 -30 -42 -95 -65 -145 -50 -108 -178 -489 -213 -635
-31 -131 -72 -363 -94 -540 -24 -190 -24 -700 0 -890 22 -175 61 -397 93 -533
25 -106 147 -492 177 -559 9 -18 34 -73 56 -122 23 -49 41 -93 41 -99 0 -6 30
-65 66 -131 37 -67 81 -148 99 -181 39 -74 198 -313 278 -420 289 -385 662
-731 1067 -992 153 -98 384 -229 448 -253 26 -10 96 -41 155 -69 118 -57 500
-187 642 -220 707 -162 1292 -162 2000 0 226 52 624 201 870 326 254 129 543
318 746 488 33 28 79 65 102 84 142 114 463 453 556 589 14 20 34 46 44 57 32
34 238 347 272 410 17 33 57 106 89 163 32 57 59 111 61 120 2 9 24 62 50 117
71 152 70 150 130 331 66 195 98 306 114 384 87 430 111 639 111 955 0 326
-36 623 -122 1000 -32 144 -162 523 -223 652 -31 65 -58 126 -60 136 -2 10
-31 67 -64 125 -32 59 -70 128 -84 155 -69 128 -308 469 -427 606 -155 179
-310 335 -492 492 -145 125 -450 340 -600 423 -35 19 -112 62 -173 95 -60 33
-115 61 -121 61 -6 0 -65 25 -130 56 -131 62 -500 188 -664 227 -130 31 -365
72 -530 92 -119 15 -617 28 -720 19z m600 -1223 c298 -28 792 -163 1037 -282
85 -42 100 -58 83 -89 -11 -20 -122 -60 -167 -60 -13 0 -84 29 -156 64 -119
58 -215 93 -422 154 -181 55 -551 106 -760 106 -267 0 -586 -41 -847 -109
-135 -35 -315 -104 -372 -143 -82 -55 -104 -64 -125 -52 -11 5 -36 10 -56 10
-84 0 -148 58 -110 100 9 10 47 29 84 41 36 12 71 25 76 29 6 4 33 12 60 18
28 6 134 38 237 71 102 33 229 69 282 80 114 25 359 57 506 66 58 4 107 9 110
12 7 8 419 -4 540 -16z m-2853 -117 c75 -25 325 -149 468 -232 72 -41 155 -89
185 -107 56 -32 107 -64 310 -198 208 -137 541 -378 548 -398 6 -14 -12 -11
-33 6 -172 134 -230 172 -475 312 -58 33 -161 95 -230 138 -278 174 -333 207
-437 262 -176 94 -314 154 -383 167 -70 13 -84 31 -40 53 32 16 30 16 87 -3z
m5001 4 c16 -20 31 -87 22 -93 -5 -3 -16 8 -25 25 -8 16 -21 30 -28 30 -41 0
-236 -94 -372 -179 -49 -31 -110 -67 -135 -80 -51 -26 -132 -80 -170 -112
l-25 -21 27 16 c15 9 38 16 51 16 30 0 87 -19 87 -30 0 -4 -21 -25 -47 -46
-27 -21 -73 -61 -103 -89 -30 -28 -100 -84 -155 -125 -55 -40 -133 -98 -173
-128 l-73 -55 -40 13 c-46 15 -42 17 -203 -78 -86 -52 -127 -80 -232 -167
l-24 -19 -26 26 -27 26 -70 -34 c-81 -38 -100 -42 -95 -16 2 10 32 31 75 52
77 37 89 50 47 50 -14 0 -53 7 -86 16 -586 151 -891 151 -1490 -3 l-108 -28
63 -33 c88 -46 116 -69 98 -81 -10 -7 -30 -2 -64 15 -38 20 -52 23 -62 14 -11
-9 -24 -4 -57 23 -24 20 -64 45 -88 55 -25 11 -72 36 -105 56 -33 20 -67 36
-75 36 -9 0 -28 -14 -43 -31 l-27 -31 -33 26 c-40 32 -298 230 -455 350 -64
48 -152 111 -194 138 -43 28 -78 54 -78 59 0 4 12 22 26 39 26 31 27 31 48 12
11 -10 66 -45 121 -77 223 -130 371 -218 397 -236 15 -11 32 -19 38 -19 5 0
10 -4 10 -10 0 -5 6 -10 14 -10 8 0 36 -17 63 -38 26 -21 93 -67 148 -102 55
-35 111 -74 125 -86 24 -22 27 -23 70 -9 69 22 461 94 595 110 66 8 212 14
325 15 230 0 343 -13 679 -80 108 -21 219 -42 246 -45 28 -4 56 -12 63 -18 9
-7 11 -6 7 5 -6 16 30 47 289 250 324 255 435 333 759 532 295 182 458 248
495 204z m-2287 -153 c85 -8 188 -20 229 -26 225 -32 644 -170 746 -246 39
-29 49 -29 96 4 32 22 42 24 62 15 43 -19 43 -49 0 -94 -66 -67 -62 -67 -198
0 -144 72 -364 152 -496 181 -139 31 -537 78 -675 80 -286 5 -692 -54 -933
-135 -42 -14 -137 -53 -210 -87 -130 -59 -135 -60 -160 -45 -15 9 -35 27 -46
41 -15 20 -16 28 -6 47 10 19 18 22 52 17 32 -4 56 2 117 30 247 113 494 176
881 221 121 15 375 13 541 -3z m-2783 -11 c23 -16 29 -43 13 -59 -44 -49 -79
-378 -46 -441 8 -16 15 -51 15 -79 0 -102 31 -402 55 -531 32 -169 110 -476
171 -664 63 -195 133 -440 161 -558 6 -24 5 -24 -60 -17 -64 7 -66 6 -71 -16
-19 -80 -26 -127 -37 -237 -12 -113 -14 -123 -32 -120 -40 6 -42 27 -24 244 9
113 21 212 27 219 6 7 22 16 35 19 39 10 40 69 2 80 -12 3 -42 6 -67 6 -71 0
-88 8 -95 44 -4 17 -24 83 -45 146 -141 422 -205 939 -169 1367 13 165 74 511
104 601 6 17 36 15 63 -4z m106 -17 c35 -46 34 -62 -2 -43 -37 19 -56 42 -48
61 9 23 23 18 50 -18z m5000 25 c12 -20 51 -279 81 -532 18 -162 19 -536 1
-706 -24 -222 -95 -515 -199 -819 l-34 -100 -68 -5 c-50 -4 -71 -10 -79 -22
-16 -26 3 -51 50 -64 38 -10 39 -12 46 -65 13 -106 27 -364 22 -386 -4 -13
-14 -23 -24 -23 -22 0 -30 37 -30 130 0 115 -27 223 -58 235 -8 3 -40 0 -69
-6 -74 -17 -81 -9 -65 81 7 39 22 96 33 128 94 255 189 551 260 817 34 126 57
315 69 560 6 132 16 257 22 277 21 71 -34 412 -72 453 -25 27 -17 35 41 40 22
1 43 5 46 9 9 8 21 8 27 -2z m-330 -90 c-6 -9 -19 -19 -28 -20 -16 -4 -16 -2
-1 28 13 24 20 29 28 21 8 -8 9 -16 1 -29z m-1989 -138 c310 -29 562 -94 834
-216 l113 -51 -23 -18 c-86 -66 -223 -150 -237 -146 -9 3 -64 19 -122 35 -147
43 -433 99 -575 113 -194 19 -466 7 -685 -30 -199 -33 -435 -90 -487 -118 -32
-17 -33 -17 -65 7 -80 58 -188 155 -185 164 6 22 176 97 327 145 256 82 418
113 680 129 136 9 210 6 425 -14z m-2424 -230 c93 -34 341 -163 355 -185 11
-18 -5 -23 -23 -7 -21 19 -210 114 -302 153 -35 14 -85 29 -112 32 -43 5 -49
4 -50 -13 -2 -29 3 -197 6 -214 2 -9 6 -43 10 -75 16 -136 92 -426 179 -680
89 -262 111 -296 130 -207 6 24 16 42 24 42 15 0 11 -20 -19 -87 -26 -57 -53
-71 -88 -45 -18 13 -27 29 -28 54 -1 19 -20 83 -42 141 -67 176 -131 460 -181
802 -34 231 -36 262 -14 293 21 30 64 29 155 -4z m4469 -3 c5 -11 10 -48 10
-83 0 -225 -78 -575 -221 -998 -27 -80 -49 -153 -49 -162 0 -9 -8 -26 -18 -38
-16 -19 -22 -21 -40 -11 -32 17 -46 49 -31 67 10 12 7 20 -16 44 -34 35 -24
62 11 29 13 -12 24 -31 24 -41 0 -44 33 -8 67 72 50 119 132 355 144 415 6 28
19 77 29 110 37 117 83 452 73 535 -5 45 -8 50 -30 50 -26 0 -203 -75 -328
-138 -208 -105 -505 -357 -534 -452 -13 -43 -35 -60 -54 -41 -6 6 -15 11 -19
11 -16 0 -8 -21 18 -47 14 -14 22 -28 19 -31 -8 -9 -53 48 -61 77 -9 32 2 42
383 343 133 105 275 190 448 270 93 43 158 50 175 19z m-1136 -129 c-54 -48
-165 -137 -175 -140 -5 -2 -9 1 -9 6 0 9 198 162 210 161 3 0 -9 -12 -26 -27z
m-2871 -155 c29 -19 75 -53 102 -77 28 -24 100 -81 162 -126 61 -46 117 -92
123 -103 14 -27 -4 -65 -27 -57 -8 3 -21 6 -28 6 -8 0 -23 20 -34 45 -24 54
-89 119 -236 233 -135 104 -143 112 -127 112 7 0 36 -15 65 -33z m60 -321 c39
-16 72 -51 87 -91 10 -27 9 -32 -18 -55 -16 -14 -33 -37 -40 -51 -16 -41 -73
-79 -118 -81 -78 -3 -131 52 -141 147 -10 102 122 177 230 131z m3434 -17 c37
-23 63 -65 63 -101 0 -45 -23 -102 -51 -129 -75 -70 -169 -32 -244 97 -21 37
-15 71 19 111 47 55 143 65 213 22z m-3147 -69 c-12 -23 -30 -27 -30 -6 0 8 8
17 18 19 9 3 18 5 20 6 1 0 -2 -8 -8 -19z m-18 -230 c50 -83 50 -87 -44 -182
-91 -92 -267 -297 -310 -362 -16 -23 -28 -53 -28 -68 0 -53 -68 -63 -103 -16
-23 30 -23 29 33 127 17 29 58 101 92 160 33 58 70 120 83 136 12 17 48 77 79
135 32 58 69 115 83 128 25 22 25 22 56 4 18 -10 44 -38 59 -62z m2856 39 c28
-30 80 -113 197 -314 32 -55 89 -152 127 -215 37 -63 68 -120 68 -126 0 -20
-30 -44 -55 -44 -28 0 -32 4 -87 90 -22 36 -73 99 -113 140 -40 41 -117 125
-172 185 -55 61 -107 116 -116 124 -23 19 -21 37 9 90 35 60 73 101 95 101 10
0 31 -14 47 -31z m-4290 -36 c6 -16 16 -59 22 -98 13 -79 26 -125 48 -173 14
-31 13 -36 -11 -85 -34 -71 -70 -171 -106 -297 -36 -129 -45 -175 -71 -365
-12 -82 -24 -172 -28 -200 l-7 -50 -43 -3 c-42 -3 -42 -3 -42 32 0 48 27 255
45 343 8 40 35 136 60 212 59 180 64 223 36 287 -12 27 -31 59 -42 70 -19 20
-19 24 -6 46 8 12 30 75 47 138 30 106 60 170 79 170 5 0 13 -12 19 -27z
m5631 -28 c12 -31 28 -93 36 -138 8 -45 20 -96 26 -113 10 -26 8 -39 -16 -99
-33 -82 -32 -94 24 -290 22 -77 49 -192 60 -255 26 -150 45 -360 33 -372 -13
-13 -79 29 -86 55 -3 12 -17 103 -31 202 -51 355 -93 522 -165 664 l-32 65 25
85 c15 47 34 115 43 151 31 120 51 130 83 45z m-4140 -238 c-20 -17 -63 -54
-97 -81 -51 -41 -97 -90 -168 -181 -10 -13 -9 -9 3 14 25 46 135 163 213 227
71 57 107 73 49 21z m2662 -33 c55 -42 219 -209 219 -223 0 -4 -53 45 -117
109 -65 64 -134 128 -153 144 -19 15 -28 24 -20 20 8 -4 40 -27 71 -50z
m-3981 -293 c0 -8 12 -34 26 -59 18 -31 23 -47 15 -51 -22 -14 -62 -167 -81
-311 -47 -341 -49 -490 -14 -872 9 -102 14 -193 11 -202 -4 -10 -19 -16 -41
-16 -32 0 -36 3 -45 38 -10 36 -60 334 -66 397 -2 17 -6 77 -9 135 -15 298 70
853 155 1012 12 23 13 23 30 -17 10 -22 19 -46 19 -54z m-429 43 c11 -13 9
-14 -12 -9 -29 7 -46 -8 -59 -52 l-8 -28 -1 28 c-1 17 8 37 24 52 28 29 38 31
56 9z m5717 -37 c31 -82 89 -364 113 -552 37 -285 27 -605 -27 -870 -15 -77
-30 -95 -81 -95 l-33 0 3 443 c2 468 0 496 -42 482 -21 -6 -27 12 -62 195 -21
109 -22 119 -7 160 9 25 35 100 58 168 23 67 46 122 50 122 5 0 17 -24 28 -53z
m340 36 c-9 -10 -18 -27 -21 -38 -4 -16 -5 -15 -6 6 -1 25 15 49 33 49 5 0 2
-8 -6 -17z m76 -19 c3 -8 2 -12 -4 -9 -6 3 -10 10 -10 16 0 14 7 11 14 -7z
m-6129 -70 c-8 -20 -17 -35 -20 -32 -3 2 3 23 13 46 9 23 18 37 20 32 2 -4 -4
-25 -13 -46z m1121 -232 c-18 -35 -36 -50 -36 -29 0 16 40 70 47 63 2 -2 -3
-18 -11 -34z m3864 6 c22 -37 25 -48 10 -48 -10 0 -50 58 -50 73 0 18 22 4 40
-25z m-4385 -5 c-31 -73 -60 -402 -51 -585 3 -60 8 -113 11 -118 3 -5 21 -14
40 -20 40 -13 38 -6 35 -127 l-2 -92 39 -23 c21 -14 46 -28 56 -31 15 -6 17
-13 12 -39 -31 -154 -226 -595 -259 -586 -16 5 -147 270 -144 292 2 13 17 24
44 33 23 8 51 25 64 38 23 24 23 25 11 157 -30 335 -23 755 17 993 19 110 31
125 101 125 28 0 32 -3 26 -17z m1638 -14 c166 -33 318 -106 476 -227 l75 -57
255 -8 c294 -10 275 -15 392 86 84 72 139 107 245 154 113 50 222 67 419 67
152 -1 180 -4 270 -28 200 -54 366 -157 395 -246 11 -35 17 -40 34 -36 33 10
244 56 326 72 85 16 140 18 140 5 0 -7 -188 -56 -440 -113 -47 -11 -57 -18
-69 -45 -22 -50 -31 -40 -30 32 1 50 -4 72 -21 100 -33 54 -115 110 -218 150
-140 54 -215 67 -392 67 -136 1 -168 -2 -259 -25 -162 -41 -286 -107 -397
-210 l-90 -85 -273 3 -272 3 -42 28 c-23 15 -71 51 -107 79 -118 95 -270 163
-425 191 -116 20 -322 18 -437 -5 -156 -31 -323 -108 -392 -179 -22 -24 -29
-44 -37 -102 -5 -40 -11 -76 -14 -78 -9 -9 -26 14 -28 38 -1 12 -11 26 -22 31
-23 9 -176 40 -317 65 -103 17 -141 34 -122 54 8 8 65 1 219 -29 114 -23 213
-41 220 -41 7 0 18 14 25 30 17 40 98 112 176 156 110 61 212 91 409 118 48 7
271 -3 328 -15z m-2323 -39 c8 -5 12 -11 10 -14 -8 -7 -60 6 -60 15 0 12 31
11 50 -1z m6308 -46 c-3 -14 -5 -12 -10 9 -3 19 -2 25 4 19 6 -6 8 -18 6 -28z
m-6367 -111 c-16 -125 -36 -185 -26 -77 11 110 31 213 39 202 2 -2 -4 -58 -13
-125z m2292 -119 c140 -32 314 -145 389 -255 25 -36 44 -80 55 -125 l16 -69
76 37 c120 59 193 79 316 85 179 9 297 -18 486 -110 l66 -33 11 58 c34 183
199 355 390 407 94 25 138 26 239 5 113 -23 245 -96 305 -169 80 -96 118 -271
88 -403 -50 -214 -279 -402 -491 -402 -119 0 -303 87 -376 177 -63 80 -131
251 -120 307 4 17 5 16 6 -5 2 -47 41 -158 76 -218 84 -143 238 -225 420 -223
137 2 223 38 331 139 66 61 105 119 131 196 22 62 25 83 20 152 -10 147 -59
234 -180 318 -166 116 -379 131 -562 39 -27 -14 -80 -55 -118 -93 -86 -86
-124 -165 -138 -287 -5 -47 -11 -88 -13 -89 -2 -2 -6 6 -9 19 -5 18 -30 35
-104 70 -168 81 -274 103 -447 95 -138 -6 -204 -23 -331 -87 -56 -27 -103 -50
-106 -50 -4 0 -9 24 -12 53 -9 94 -57 181 -147 268 -115 112 -236 162 -391
162 -142 -1 -251 -40 -341 -122 -103 -94 -158 -249 -139 -386 20 -136 36 -167
150 -276 81 -77 144 -112 248 -135 70 -15 81 -15 159 0 101 20 174 50 246 104
106 78 174 178 185 273 3 27 10 49 16 49 15 0 0 -82 -26 -141 -70 -157 -260
-292 -446 -319 -134 -19 -257 31 -392 158 -127 119 -163 206 -164 388 0 96 2
103 38 176 103 209 346 317 590 262z m657 -86 c0 -14 -16 -9 -36 13 -19 21
-19 21 9 8 15 -7 27 -16 27 -21z m3450 18 c0 -3 -4 -8 -10 -11 -5 -3 -10 -1
-10 4 0 6 5 11 10 11 6 0 10 -2 10 -4z m-2885 -31 c-21 -17 -37 -15 -43 3 -2
8 8 12 30 12 31 -1 32 -1 13 -15z m-1208 -102 c76 -24 163 -104 193 -178 29
-72 25 -187 -9 -254 -60 -117 -173 -182 -311 -182 -171 0 -293 92 -333 249
-40 158 41 314 190 368 55 19 205 18 270 -3z m2098 -10 c46 -24 114 -93 142
-144 29 -53 26 -209 -5 -267 -62 -116 -162 -181 -291 -189 -123 -8 -221 40
-291 143 -111 160 -68 339 106 447 56 34 65 36 189 33 90 -1 117 -6 150 -23z
m1095 -9 c0 -8 -10 -18 -22 -23 -13 -5 -48 -20 -78 -34 -86 -39 -172 -77 -176
-77 -2 0 -4 17 -4 39 l0 39 98 32 c53 18 108 38 122 45 28 15 60 4 60 -21z
m-5276 1 c37 -57 9 -80 -125 -106 -57 -11 -121 -24 -141 -30 -44 -11 -73 0
-83 32 -12 37 22 57 140 83 61 13 121 29 135 35 40 16 57 13 74 -14z m5517
-87 c1 -62 1 -221 0 -353 -1 -180 2 -246 11 -265 9 -16 33 -32 66 -45 37 -14
52 -25 52 -39 0 -21 -137 -286 -149 -286 -24 0 -193 404 -226 539 -20 83 -20
82 52 122 26 14 31 24 36 70 4 30 7 80 7 112 l0 57 33 0 c55 0 67 17 78 105 6
43 12 82 15 87 17 27 24 -5 25 -104z m-4684 50 c115 -37 133 -46 133 -64 0
-49 -21 -48 -162 8 -157 63 -173 72 -164 87 13 20 59 13 193 -31z m5279 6
c135 -29 176 -54 155 -93 -16 -30 -17 -30 -185 -2 -122 21 -141 29 -152 63 -7
23 21 58 46 58 9 0 70 -12 136 -26z m-856 -179 c0 -72 -3 -88 -20 -105 -41
-41 -50 -28 -50 69 0 95 11 121 51 121 17 0 19 -8 19 -85z m-4539 65 c16 -9
19 -22 19 -95 0 -46 -4 -86 -8 -89 -5 -3 -18 -2 -30 1 -21 5 -22 11 -22 99 0
97 3 104 41 84z m-737 -53 c16 -46 -1 -59 -115 -90 -143 -39 -178 -40 -198 -5
-15 26 -15 29 6 49 26 26 210 79 263 76 28 -2 36 -7 44 -30z m6132 -8 c43 -11
90 -26 104 -32 32 -16 38 -57 11 -81 -19 -18 -24 -17 -128 9 -114 28 -146 43
-163 74 -29 55 38 66 176 30z m-3649 -71 c-3 -7 -5 -2 -5 12 0 14 2 19 5 13 2
-7 2 -19 0 -25z m2249 -153 c-10 -30 -21 -57 -25 -59 -4 -3 2 24 13 59 11 36
22 63 24 60 3 -2 -3 -29 -12 -60z m-3865 45 c21 0 2 -153 -35 -285 -56 -201
-189 -478 -277 -579 -33 -37 -58 -73 -56 -79 4 -12 33 -23 242 -87 249 -76
259 -81 785 -347 326 -165 646 -303 905 -391 156 -52 494 -140 570 -148 166
-17 597 121 1046 334 47 23 110 50 140 62 49 20 130 60 589 297 161 84 453
203 619 254 25 8 46 19 48 26 3 9 -3 9 -24 1 -47 -17 -143 18 -143 53 0 12 44
29 74 29 12 0 32 -9 44 -20 35 -33 27 -17 -42 83 -157 227 -228 431 -261 745
l-7 62 30 0 c29 0 30 -2 37 -57 35 -299 204 -696 369 -871 74 -78 211 -167
299 -193 39 -11 76 -25 81 -30 19 -17 -27 -48 -132 -87 -101 -37 -147 -51
-397 -124 -55 -16 -129 -37 -165 -48 -36 -11 -96 -26 -135 -35 -38 -9 -97 -22
-131 -30 -53 -13 -159 -32 -294 -52 -28 -3 -53 4 -109 30 l-73 35 -106 -45
c-59 -25 -150 -62 -202 -83 -52 -21 -153 -64 -225 -95 -315 -139 -691 -272
-741 -262 -14 2 -49 -2 -78 -9 -80 -21 -126 -17 -284 26 -396 109 -608 183
-872 302 -24 11 -76 33 -115 48 -38 15 -121 49 -183 75 l-114 47 -100 -42
-100 -43 -54 17 c-29 9 -89 21 -133 26 -43 5 -105 16 -137 24 -33 8 -86 19
-119 25 -33 6 -105 24 -160 40 -55 16 -167 48 -250 71 -207 59 -416 129 -438
148 -23 20 -15 28 76 67 152 66 296 182 379 305 42 61 135 249 197 396 42 101
94 278 117 397 3 21 9 27 20 23 9 -3 20 -6 25 -6z m356 -12 c-3 -8 -6 -5 -6 6
-1 11 2 17 5 13 3 -3 4 -12 1 -19z m4769 -13 c17 -17 23 -32 19 -44 -3 -11
-16 -61 -29 -113 -13 -51 -38 -141 -55 -199 -40 -138 -40 -152 3 -167 72 -26
70 -42 -38 -220 -35 -59 -71 -124 -79 -144 -9 -21 -20 -38 -25 -38 -31 0 -142
140 -142 179 0 9 27 70 60 136 80 160 114 252 160 433 36 142 49 175 75 194
16 12 25 9 51 -17z m-5947 -9 c6 -7 18 -44 27 -82 49 -214 133 -460 192 -564
58 -102 59 -92 -11 -183 -35 -45 -68 -82 -74 -82 -16 0 -165 281 -178 337 -6
24 -2 30 30 49 36 22 37 24 31 68 -3 24 -24 122 -46 218 -39 166 -47 232 -33
246 11 12 50 8 62 -7z m4931 -26 c0 -11 -138 -80 -160 -80 -32 0 5 28 76 57
92 38 84 36 84 23z m-3954 -10 c6 -6 39 -18 74 -28 35 -9 65 -23 68 -31 3 -10
-2 -12 -19 -8 -50 12 -169 60 -169 68 0 12 34 11 46 -1z m250 -96 c18 -15 18
-15 -11 -9 -37 8 -57 25 -29 25 11 0 29 -7 40 -16z m3459 6 c-3 -5 -13 -10
-21 -10 -8 0 -12 5 -9 10 3 6 13 10 21 10 8 0 12 -4 9 -10z m-4899 -32 c-3
-13 -6 -34 -7 -48 0 -23 -1 -23 -9 -5 -15 35 -12 75 6 75 12 0 15 -6 10 -22z
m6312 9 c13 -16 -38 -229 -56 -235 -18 -6 -14 25 14 113 15 47 23 91 20 108
-6 29 5 35 22 14z m-2971 -28 c43 -5 118 -19 167 -31 88 -20 91 -22 159 -88
38 -38 67 -74 65 -82 -3 -7 -24 -26 -49 -43 -24 -16 -63 -47 -87 -70 -24 -22
-48 -41 -53 -43 -5 -2 -28 12 -50 32 -26 22 -73 46 -123 63 -70 24 -97 27
-196 27 -132 0 -190 -14 -313 -76 -42 -22 -81 -38 -86 -36 -5 2 -36 29 -71 61
-76 71 -75 80 13 164 53 52 75 65 133 82 149 45 339 61 491 40z m-3335 -94 c3
-14 1 -25 -3 -25 -5 0 -9 4 -9 9 0 5 -3 16 -6 25 -3 9 -2 16 4 16 5 0 12 -11
14 -25z m30 -108 c-7 -14 -19 6 -27 43 l-6 35 18 -35 c11 -19 17 -39 15 -43z
m1615 16 c26 -20 66 -51 89 -70 52 -42 167 -95 269 -123 67 -19 96 -22 182
-17 97 5 108 8 197 51 52 25 106 46 118 46 25 0 188 -149 188 -171 0 -6 -22
10 -49 36 -58 57 -100 85 -124 85 -10 0 -47 -13 -82 -29 -125 -58 -153 -65
-270 -65 -96 0 -120 3 -190 28 -98 35 -229 102 -313 162 -49 34 -73 44 -103
44 -42 0 -49 12 -22 42 24 27 56 22 110 -19z m3093 17 c26 -26 26 -50 0 -43
-33 9 -61 -4 -135 -58 -96 -70 -176 -113 -266 -143 -117 -39 -200 -48 -284
-31 -74 15 -295 103 -295 117 0 5 11 14 25 20 22 10 37 5 117 -35 131 -64 171
-71 294 -53 166 25 246 60 409 180 49 36 95 66 102 66 7 0 22 -9 33 -20z m283
-165 c70 -99 131 -186 134 -193 7 -15 -118 -271 -144 -294 -14 -13 -42 -17
-123 -19 -280 -5 -455 -36 -722 -129 -130 -44 -271 -85 -339 -97 -25 -5 -30 3
-116 180 -50 101 -95 187 -100 190 -6 4 -13 -16 -16 -48 -9 -86 -56 -172 -135
-247 -66 -62 -157 -118 -192 -118 -25 0 -53 35 -46 57 3 11 34 37 68 59 91 57
192 147 211 187 21 44 22 148 2 187 -8 16 -32 42 -52 57 l-37 28 -245 -1
c-269 -1 -291 -5 -328 -61 -24 -36 -23 -164 0 -209 18 -34 148 -155 213 -198
23 -15 47 -39 53 -54 11 -23 10 -29 -9 -44 -30 -24 -52 -23 -109 6 -109 55
-238 244 -266 389 -3 15 -10 25 -16 22 -14 -9 -143 -271 -164 -333 -9 -29 -22
-55 -29 -58 -6 -2 -100 25 -209 61 -281 93 -396 124 -527 142 -142 19 -156 20
-309 22 l-124 1 -36 39 c-20 21 -66 93 -103 160 l-67 123 20 41 c36 72 161
276 185 302 29 31 54 31 77 0 17 -24 17 -25 -34 -102 -67 -100 -129 -218 -129
-244 0 -15 5 -19 18 -15 17 5 170 27 321 46 95 11 125 1 137 -45 11 -44 -9
-55 -105 -55 -47 -1 -117 -5 -156 -10 -38 -6 -94 -13 -122 -17 -29 -3 -53 -7
-53 -10 0 -13 44 -94 59 -107 15 -14 26 -12 121 20 58 20 142 44 187 55 91 22
96 21 163 -31 60 -46 173 -108 225 -123 28 -8 101 -36 164 -61 62 -26 119 -45
125 -43 7 3 39 56 71 118 46 88 74 127 129 182 l70 69 42 -23 42 -22 57 50
c112 100 209 133 400 133 206 0 312 -33 419 -131 57 -52 79 -57 106 -24 22 27
46 16 106 -47 71 -75 109 -128 157 -224 52 -103 49 -102 158 -44 52 27 100 50
107 50 24 0 194 83 274 132 44 27 90 48 105 48 36 0 285 -55 342 -75 24 -8 45
-15 46 -15 6 0 35 82 35 99 0 25 -28 29 -230 37 -172 7 -210 16 -210 53 0 10
9 26 20 36 18 16 35 18 118 16 122 -3 272 -16 294 -26 12 -5 20 -2 24 9 4 10
-30 69 -95 166 l-101 151 16 30 c9 19 22 29 32 27 9 -2 74 -84 145 -183z
m1227 75 c12 -8 11 -10 -7 -10 -12 0 -25 5 -28 10 -8 13 15 13 35 0z m-6165
-10 c-3 -5 -16 -10 -28 -9 -21 0 -21 1 -2 9 28 12 37 12 30 0z m739 -386 c20
-8 21 -38 1 -54 -17 -14 -145 -27 -145 -14 0 4 14 23 32 41 32 33 72 42 112
27z m2076 -70 c0 -16 -16 -19 -25 -4 -8 13 4 32 16 25 5 -4 9 -13 9 -21z m439
-15 c39 -14 40 -39 4 -79 -26 -27 -33 -29 -103 -30 -187 -3 -190 -3 -221 31
-33 35 -37 63 -11 78 23 14 291 14 331 0z m-909 -410 c0 -5 -6 -9 -14 -9 -25
0 -46 12 -46 26 0 10 6 11 30 3 17 -6 30 -15 30 -20z m1515 -4 c-26 -22 -65
-34 -65 -20 0 6 72 44 85 44 6 0 -3 -11 -20 -24z m-824 -101 c9 -18 10 -30 3
-42 -12 -19 -115 -72 -212 -108 l-62 -24 -20 33 c-11 17 -20 38 -20 45 0 19
261 133 286 125 6 -2 17 -15 25 -29z m194 5 c28 -14 87 -41 133 -60 85 -35
101 -53 82 -89 -17 -31 -54 -35 -118 -10 -104 40 -137 58 -177 93 l-40 35 30
31 c16 17 32 30 35 29 3 -2 28 -15 55 -29z m1265 -288 c0 -4 20 -22 44 -40
104 -74 151 -121 168 -169 21 -59 22 -96 4 -112 -28 -23 -59 -7 -97 50 -55 83
-129 145 -152 128 -2 -2 -11 3 -19 10 -18 15 -46 6 -183 -58 -112 -52 -235
-103 -329 -136 -175 -63 -511 -174 -526 -174 -9 0 -25 9 -35 20 -16 18 -17 21
-1 44 13 20 47 35 173 75 87 27 169 52 183 56 97 28 462 180 630 264 105 51
140 62 140 42z m-2690 -47 c229 -109 572 -231 848 -300 96 -23 180 -48 188
-55 18 -15 18 -53 -1 -69 -19 -16 -73 -9 -190 26 -49 14 -117 32 -150 39 -69
15 -353 114 -500 175 -231 95 -257 103 -276 92 -15 -9 -23 -5 -48 24 -38 42
-39 57 -5 83 36 28 47 27 134 -15z m3074 -125 c5 -5 7 -12 3 -15 -9 -10 -68
17 -61 28 6 9 43 2 58 -13z m-3424 -19 c-13 -24 -47 -43 -54 -31 -6 10 39 51
56 51 5 0 4 -9 -2 -20z m120 -19 c0 -12 -51 -53 -58 -46 -6 6 38 55 50 55 4 0
8 -4 8 -9z m1650 -58 c-19 -15 -53 -44 -74 -64 l-40 -36 3 -153 c2 -123 0
-151 -11 -148 -10 3 -15 42 -19 149 l-6 144 71 67 c39 37 80 67 91 68 16 0 13
-5 -15 -27z m-1451 -13 c94 -60 420 -193 600 -245 66 -19 135 -41 154 -49 43
-17 56 -50 31 -77 -22 -24 -36 -24 -99 0 -27 11 -108 39 -180 61 -143 46 -389
142 -503 196 -112 54 -133 83 -90 124 28 26 33 26 87 -10z m2719 8 c7 -7 12
-24 12 -39 0 -30 6 -27 -230 -135 -112 -50 -343 -143 -487 -194 l-53 -19 -20
26 c-11 14 -20 32 -20 40 0 13 92 63 117 63 35 0 451 168 578 233 78 40 86 42
103 25z"/>
<path d="M5890 6759 c0 -5 5 -7 10 -4 6 3 10 8 10 11 0 2 -4 4 -10 4 -5 0 -10
-5 -10 -11z"/>
<path d="M2301 7063 c2 -70 6 -63 11 20 2 26 0 47 -4 47 -5 0 -7 -30 -7 -67z"/>
<path d="M7551 7098 c0 -26 3 -49 7 -52 4 -2 6 12 4 32 -6 62 -10 69 -11 20z"/>
<path d="M4695 7290 c-39 -4 -113 -17 -165 -28 -52 -11 -122 -26 -155 -32
-112 -22 -304 -85 -292 -96 2 -2 30 5 63 16 151 52 452 113 647 131 198 17
465 -9 742 -73 72 -17 141 -32 155 -34 51 -9 -15 14 -116 39 -137 35 -301 65
-414 77 -108 11 -360 11 -465 0z"/>
<path d="M5745 7156 c17 -7 41 -16 55 -20 20 -5 19 -3 -5 8 -16 7 -41 16 -55
20 -20 5 -19 3 5 -8z"/>
<path d="M2300 3409 c-41 -32 -94 -69 -117 -81 -24 -13 -43 -26 -43 -30 0 -11
228 -96 335 -124 55 -14 141 -39 190 -54 50 -16 108 -31 130 -35 22 -4 74 -15
115 -25 101 -25 342 -54 393 -47 23 2 55 10 71 16 l30 12 -80 45 c-111 64
-119 67 -140 43 -16 -18 -44 -26 -44 -13 0 3 5 14 11 25 14 27 4 38 -82 90
-75 45 -239 107 -354 135 -54 12 -256 73 -330 99 -5 2 -44 -23 -85 -56z m810
-309 c0 -5 -5 -10 -11 -10 -5 0 -7 5 -4 10 3 6 8 10 11 10 2 0 4 -4 4 -10z"/>
<path d="M7435 3461 c-6 -10 -98 -48 -150 -61 -250 -66 -318 -90 -436 -151
-93 -48 -117 -72 -99 -94 14 -17 11 -18 -44 -15 l-39 2 22 -30 c39 -56 14 -65
-41 -14 l-27 24 -48 -23 c-26 -12 -59 -29 -71 -38 l-24 -15 34 -17 c18 -10 53
-18 78 -19 94 0 336 47 545 106 66 19 161 46 210 60 50 14 146 45 215 71 119
43 160 63 131 63 -13 0 -187 117 -215 145 -17 17 -32 19 -41 6z"/>
</g>
</svg>
